<?xml version="1.0" encoding="UTF-8"?>
<svg xmlns="http://www.w3.org/2000/svg" viewBox="0 0 400 400">
  <defs>
    <radialGradient id="mw" cx="35%" cy="45%" r="75%">
      <stop offset="0%" stop-color="#8a9ab8" stop-opacity="0.028"/>
      <stop offset="45%" stop-color="#6a7a98" stop-opacity="0.016"/>
      <stop offset="100%" stop-color="#070708" stop-opacity="0"/>
    </radialGradient>
  </defs>
  <rect width="100%" height="100%" fill="#070708"/>
  <rect width="100%" height="100%" fill="url(#mw)"/>
  <circle cx="397.68" cy="8.37" r="2.09" fill="#ffffff" opacity="0.91"/>
  <circle cx="76.54" cy="33.31" r="1.50" fill="#ffffff" opacity="0.80"/>
  <circle cx="287.30" cy="317.99" r="1.74" fill="#ffffff" opacity="0.79"/>
  <circle cx="304.85" cy="151.90" r="2.05" fill="#ffffff" opacity="0.78"/>
  <circle cx="320.15" cy="380.66" r="1.15" fill="#ffffff" opacity="0.73"/>
  <circle cx="299.92" cy="76.67" r="1.39" fill="#ffffff" opacity="0.70"/>
  <circle cx="171.83" cy="122.19" r="1.86" fill="#ffffff" opacity="0.58"/>
  <circle cx="126.40" cy="78.13" r="1.56" fill="#ffffff" opacity="0.54"/>
  <circle cx="199.60" cy="232.49" r="1.60" fill="#ffffff" opacity="0.50"/>
  <circle cx="28.85" cy="267.36" r="0.91" fill="#cfe0ff" opacity="0.46"/>
  <circle cx="281.78" cy="245.03" r="0.64" fill="#f0f6ff" opacity="0.44"/>
  <circle cx="53.60" cy="27.18" r="1.20" fill="#f0f6ff" opacity="0.43"/>
  <circle cx="258.83" cy="230.81" r="1.30" fill="#e8f0ff" opacity="0.37"/>
  <circle cx="151.83" cy="107.28" r="1.23" fill="#fffef5" opacity="0.35"/>
  <circle cx="167.10" cy="8.35" r="1.19" fill="#ffffff" opacity="0.35"/>
  <circle cx="258.15" cy="46.42" r="1.14" fill="#fffef5" opacity="0.34"/>
  <circle cx="264.02" cy="210.72" r="0.63" fill="#cfe0ff" opacity="0.33"/>
  <circle cx="29.05" cy="62.83" r="0.90" fill="#f0f6ff" opacity="0.33"/>
  <circle cx="248.21" cy="41.97" r="1.21" fill="#f0f6ff" opacity="0.31"/>
  <circle cx="209.17" cy="6.06" r="1.25" fill="#fffef5" opacity="0.28"/>
  <circle cx="232.83" cy="56.69" r="0.74" fill="#fffef5" opacity="0.28"/>
  <circle cx="379.22" cy="211.88" r="0.77" fill="#d6e8ff" opacity="0.26"/>
  <circle cx="110.83" cy="221.94" r="0.79" fill="#d6e8ff" opacity="0.25"/>
  <circle cx="343.92" cy="199.47" r="0.42" fill="#cfe0ff" opacity="0.25"/>
  <circle cx="243.86" cy="386.93" r="0.73" fill="#ffffff" opacity="0.24"/>
  <circle cx="354.62" cy="119.60" r="0.82" fill="#cfe0ff" opacity="0.24"/>
  <circle cx="234.92" cy="14.37" r="0.61" fill="#e8f0ff" opacity="0.23"/>
  <circle cx="334.40" cy="73.43" r="0.39" fill="#fffef5" opacity="0.23"/>
  <circle cx="189.47" cy="311.35" r="0.69" fill="#fffef5" opacity="0.22"/>
  <circle cx="175.64" cy="67.96" r="1.05" fill="#f0f6ff" opacity="0.22"/>
  <circle cx="322.52" cy="270.64" r="1.06" fill="#fffef5" opacity="0.21"/>
  <circle cx="373.32" cy="279.41" r="0.70" fill="#fffef5" opacity="0.21"/>
  <circle cx="30.55" cy="362.35" r="0.70" fill="#fffef5" opacity="0.21"/>
  <circle cx="183.02" cy="243.83" r="0.44" fill="#fffef5" opacity="0.20"/>
  <circle cx="246.56" cy="165.58" r="0.44" fill="#fffef5" opacity="0.20"/>
  <circle cx="129.37" cy="151.10" r="0.52" fill="#d6e8ff" opacity="0.20"/>
  <circle cx="180.18" cy="345.45" r="0.77" fill="#fffef5" opacity="0.20"/>
  <circle cx="391.64" cy="365.70" r="0.75" fill="#e8f0ff" opacity="0.20"/>
  <circle cx="342.08" cy="309.08" r="0.82" fill="#f0f6ff" opacity="0.20"/>
  <circle cx="74.57" cy="180.26" r="0.72" fill="#ffffff" opacity="0.19"/>
  <circle cx="73.51" cy="195.68" r="0.80" fill="#f0f6ff" opacity="0.19"/>
  <circle cx="213.17" cy="55.51" r="0.47" fill="#cfe0ff" opacity="0.18"/>
  <circle cx="37.90" cy="73.46" r="0.52" fill="#e8f0ff" opacity="0.18"/>
  <circle cx="264.64" cy="254.56" r="0.41" fill="#ffffff" opacity="0.18"/>
  <circle cx="2.52" cy="210.87" r="0.69" fill="#ffffff" opacity="0.17"/>
  <circle cx="361.61" cy="203.09" r="0.75" fill="#d6e8ff" opacity="0.16"/>
  <circle cx="285.82" cy="28.47" r="0.71" fill="#fffef5" opacity="0.16"/>
  <circle cx="261.72" cy="70.47" r="0.40" fill="#d6e8ff" opacity="0.16"/>
  <circle cx="340.32" cy="36.07" r="0.57" fill="#f0f6ff" opacity="0.15"/>
  <circle cx="88.13" cy="376.35" r="0.80" fill="#cfe0ff" opacity="0.14"/>
  <circle cx="101.98" cy="148.94" r="0.37" fill="#f0f6ff" opacity="0.14"/>
  <circle cx="235.61" cy="274.48" r="0.60" fill="#d6e8ff" opacity="0.13"/>
  <circle cx="191.47" cy="37.68" r="0.37" fill="#f0f6ff" opacity="0.13"/>
  <circle cx="234.86" cy="338.44" r="0.54" fill="#d6e8ff" opacity="0.12"/>
  <circle cx="40.31" cy="88.79" r="0.55" fill="#e8f0ff" opacity="0.12"/>
  <circle cx="158.32" cy="236.99" r="0.42" fill="#cfe0ff" opacity="0.12"/>
  <circle cx="257.14" cy="276.36" r="0.45" fill="#ffffff" opacity="0.12"/>
  <circle cx="0.50" cy="339.22" r="0.70" fill="#fffef5" opacity="0.11"/>
  <circle cx="120.67" cy="23.39" r="0.38" fill="#ffffff" opacity="0.10"/>
  <circle cx="179.96" cy="372.26" r="0.46" fill="#cfe0ff" opacity="0.10"/>
  <circle cx="125.25" cy="386.82" r="0.42" fill="#cfe0ff" opacity="0.09"/>
  <circle cx="138.68" cy="317.55" r="0.38" fill="#d6e8ff" opacity="0.08"/>
  <circle cx="81.57" cy="18.30" r="0.38" fill="#d6e8ff" opacity="0.08"/>
  <circle cx="10.47" cy="179.02" r="0.42" fill="#f0f6ff" opacity="0.08"/>
  <circle cx="290.20" cy="335.00" r="0.65" fill="#e8f0ff" opacity="0.08"/>
  <circle cx="395.50" cy="99.12" r="0.49" fill="#d6e8ff" opacity="0.08"/>
  <circle cx="269.54" cy="59.12" r="0.54" fill="#fffef5" opacity="0.07"/>
  <circle cx="155.51" cy="26.80" r="0.36" fill="#ffffff" opacity="0.07"/>
</svg>
